<?xml version="1.0" standalone="no"?>
<!DOCTYPE svg PUBLIC "-//W3C//DTD SVG 20010904//EN"
 "http://www.w3.org/TR/2001/REC-SVG-20010904/DTD/svg10.dtd">
<svg version="1.0" xmlns="http://www.w3.org/2000/svg"
 width="80.000000pt" height="80.000000pt" viewBox="0 0 80.000000 80.000000"
 preserveAspectRatio="xMidYMid meet">
<metadata>
Created by potrace 1.11, written by Peter Selinger 2001-2013
</metadata>
<g transform="translate(0.000000,80.000000) scale(0.100000,-0.100000)"
fill="#000000" stroke="none">
<path d="M0 400 l0 -400 400 0 400 0 0 400 0 400 -400 0 -400 0 0 -400z m678
248 l-3 -63 -187 -5 c-119 -3 -191 -9 -198 -16 -7 -6 -10 -24 -8 -40 4 -40 47
-53 183 -53 127 -1 183 -21 221 -78 58 -87 26 -225 -64 -285 -24 -16 -54 -18
-264 -18 l-238 0 0 64 0 64 198 3 c217 4 232 8 232 60 0 47 -28 57 -180 64
-152 7 -207 22 -244 66 -59 69 -55 177 8 238 56 54 87 60 329 61 l218 0 -3
-62z"/>
</g>
</svg>
